<svg xmlns="http://www.w3.org/2000/svg" id="uuid-cbee3a99-4f90-46e9-a14b-b5590fc8069d" viewBox="0 0 800.03 171.99"><defs><style>.uuid-72dede7b-e6e8-4ed7-9441-2cdcd4f185cf{fill:#0b9c4c;}.uuid-72dede7b-e6e8-4ed7-9441-2cdcd4f185cf,.uuid-f5025554-3c75-46cf-ae0b-58cb70837935{stroke-width:0px;}.uuid-f5025554-3c75-46cf-ae0b-58cb70837935{fill:#b6c00f;}</style></defs><g id="uuid-067a9475-27ae-4136-bea2-c6b7a6f3d909"><path class="uuid-f5025554-3c75-46cf-ae0b-58cb70837935" d="m243.96,107.89c.34-10.4,1.71-20.53,8.26-29.17,6.39-8.44,14.72-11.79,25.27-9.75,11.03,2.13,19.88,7.78,27.18,16.09,3.54,4.04,3.44,4.04,7.37.73,4.29-3.61,8.53-7.25,13.43-10.11,2.52-1.48,3.54-3.7,3.2-7.41-1.45-15.78-2.42-31.75,5.54-46.38,6.82-12.52,17.14-20.69,31.72-21.75,15.2-1.1,28.52,4.34,40.6,13.3,4.69,3.48,8.86,7.52,12.83,11.75,1.72,1.83,3.2,2.42,5.64,1.52,13.58-4.98,27.63-8.5,41.63-11.9,8.96-2.18,18.19-3.77,27.38-5.12,3.93-.58,7.87-1.17,11.77-1.92,14.45-2.78,29.13-2.46,43.72-3.51.83-.06,1.7-.22,2.49-.04,1.32.31,3.51-.59,3.73,1.31.2,1.63-1.92,2.05-3.21,2.7-2.14,1.08-4.49,1.17-6.84,1.13-10.36-.17-20.68.95-30.78,2.83-15.94,2.97-31.56,7.24-46.85,12.88-9.9,3.65-19.5,8.11-29.66,11.07-.61.18-1.1.72-1.66,1.06-5.89,3.6-5.49,3.39-2.4,9.38,5.7,11.05,10.22,22.54,11.69,35.09,1.15,9.81,1.47,19.56.06,29.35-2.31,16.06-9.02,29.2-23.93,37.19-7.35,3.94-15.29,4.71-23.12,3.39-8.09-1.36-16.25-3.62-23.27-8.07-11.64-7.38-21.93-16.39-29.42-28.15-3.46-5.44-6.81-10.98-9.35-16.96-1.5-3.55-2.85-3.79-6.02-1.52-3.36,2.42-6.69,4.86-10.03,7.3-1.78,1.3-2.5,2.73-1.69,5.12,1.38,4.08,2.58,8.26,3.38,12.49,2.8,14.69.51,28.48-8.17,40.87-4.14,5.91-9.88,8.96-17.28,9.26-15.62.63-27.04-6.49-36.39-18.35-6.22-7.9-11.36-16.27-13.79-26.07-1.6-6.44-3.42-12.87-3.07-19.65Zm182.22-19c.69-12.76-1.71-26.73-6.08-40.43-.83-2.61-2.02-3.06-4.38-1.79-13.23,7.12-26.6,14.01-39.73,21.32-7.6,4.23-14.84,9.1-22.26,13.65-2.65,1.62-3.74,3.48-2.87,6.89,1.48,5.8,3,11.56,4.94,17.22,5.51,16.07,14.72,28.85,31.14,35.13,15.1,5.77,29.77.46,35.14-15.85,3.7-11.26,4.28-22.81,4.1-36.14Zm-77.34-36.86c-.1,2.14-.28,3.64-.2,5.13.14,2.9.78,3.23,3.31,1.69,11.17-6.8,23.09-12.1,35-17.39,7.12-3.16,14.41-5.92,21.56-9,3.23-1.39,3.27-1.83,1.23-4.55-7.34-9.79-16.99-16.19-28.93-18.72-10.88-2.31-20.34,3.43-25.17,13.08-4.82,9.63-6.12,19.92-6.79,29.76Zm-88.02,51.26c.11,7.64.26,12.79,1.15,17.89,1.55,8.86,4.33,17.33,7.99,25.53.35.79.84,1.38,1.57,1.81.12-.72.37-1.44.33-2.15-.28-4.77,1.38-9.2,2.8-13.55,3.42-10.44,14.13-25.69,22.76-33.48,1.28-1.16,2.19-2.63,1.24-4.42-4.16-7.8-8.81-15.18-17.72-18.35-4.84-1.72-11.78-1.45-15.5,5.07-4.33,7.6-4.54,15.82-4.62,21.65Zm45.12,23.27c0-2.54.09-4.04-.03-5.53-.08-.93.22-2.16-.8-2.68-1.14-.58-1.76.6-2.46,1.2-4.64,4-8.82,8.48-12.1,13.63-4.29,6.73-8.38,13.64-8.31,22.03.08,9.45-.77,7.49,8.28,9.45,4.47.97,8.47-.47,11.13-4.73,2.6-4.18,4.04-8.71,4.38-13.54.49-6.95,1.19-13.93-.09-19.84Z"></path><path class="uuid-72dede7b-e6e8-4ed7-9441-2cdcd4f185cf" d="m465.09,116.6c0-15.66,0-31.31,0-46.97,0-4.76,0-4.78,4.52-4.77,11.99.03,23.99-.08,35.97.16,10.18.21,19.31,3.38,26.24,11.25,5.73,6.51,7.99,14.43,8.68,22.92.77,9.5-.41,18.52-5.47,26.88-5.63,9.29-13.89,13.97-24.52,14.9-7.15.63-14.31.44-21.47.33-2.76-.05-3.86.77-3.78,3.69.18,6.82-.02,13.66.09,20.48.04,2.5-.64,3.63-3.38,3.51-4.15-.19-8.32.01-12.49-.02-4.39-.04-4.42-.07-4.42-4.4,0-12.16.02-24.32.03-36.47,0-3.83,0-7.66,0-11.49Zm20.17-13.13h.02c0,5.99,0,11.97,0,17.96,0,1.68-.18,3.55,2.35,3.47,6.46-.21,12.97.63,19.35-1.08,6.38-1.71,10.35-5.71,11.72-12.18,1.08-5.08,1.34-10.15.43-15.33-1.7-9.65-6.09-13.88-15.95-14.46-4.81-.28-9.65,0-14.46-.22-2.61-.11-3.55.77-3.5,3.39.13,6.15.04,12.31.04,18.46Z"></path><path class="uuid-72dede7b-e6e8-4ed7-9441-2cdcd4f185cf" d="m225.2,89.38c0,15.82.01,31.64,0,47.45,0,4.43-.05,4.54-4.35,4.55-12.15.02-24.32.19-36.46-.17-20.28-.6-33.5-13.8-34.41-34.03-.21-4.64-.6-9.33.48-13.93,4.2-17.88,14.65-27.77,33.99-28.22,5.66-.13,11.33-.28,16.98-.09,2.9.1,3.78-.94,3.73-3.66-.13-6.66.03-13.32-.18-19.98-.1-3.08.96-4.16,4.03-3.96,3.65.24,7.32.08,10.98.08q5.23,0,5.23,5c0,7.83,0,15.65,0,23.48,0,7.83,0,15.65,0,23.48h-.02Zm-20.11,13.91h-.05c0-6.15-.02-12.31.01-18.46.01-1.86-.23-3.17-2.63-3.14-5.48.07-11.01-.41-16.44.46-7.55,1.21-12.72,5.26-14.29,13.18-1.15,5.8-1.07,11.56.12,17.32,1.32,6.39,5.27,10.09,11.62,11.47,5.44,1.18,10.93.72,16.4.74,5.23.02,5.24-.06,5.25-5.1.01-5.49,0-10.98,0-16.47Z"></path><path class="uuid-72dede7b-e6e8-4ed7-9441-2cdcd4f185cf" d="m769.76,141.33c-7.83,0-15.66,0-23.49,0-2.67,0-5.31-.25-7.9-.92-9.12-2.36-14.53-8.72-15.21-18.09-.18-2.48-.18-5.01.05-7.49.87-9.62,5.8-15.51,15.08-18.21,4.52-1.31,9.16-1.65,13.83-1.66,7.83-.01,15.66.03,23.49-.04,3.64-.03,3.99-.52,3.75-4.05-.31-4.53-2.86-7.72-7.42-8.87-2.73-.69-5.52-1.12-8.39-1.1-10.66.08-21.32-.06-31.98.08-2.86.04-3.85-.89-3.6-3.73.24-2.81.36-5.69.02-8.48-.4-3.35,1.09-3.89,3.96-3.86,13.33.11,26.66-.13,39.98.16,6.86.15,13.54,1.6,19.2,6.04,5.77,4.53,8.67,10.6,8.77,17.73.22,16.15.09,32.31.06,48.47,0,4.01-.07,4.07-4.22,4.09-8.66.04-17.32.01-25.99.01v-.09Zm-6.29-15.5s0,.07,0,.1c3.98,0,7.96.01,11.94,0q4.27-.02,4.33-4.49c.02-2.16,0-4.31,0-6.47-.03-4.66-.03-4.72-4.52-4.77-6.64-.07-13.27-.05-19.91-.03-1.49,0-3,.06-4.47.31-4.8.79-7.11,3.79-6.82,8.72.27,4.64,2.19,6.42,7.5,6.61,3.98.14,7.96.03,11.95.03Z"></path><path class="uuid-72dede7b-e6e8-4ed7-9441-2cdcd4f185cf" d="m102.53,63.78c9.37-.32,17.96,1.94,25.48,7.37,9.72,7.02,13.79,17.14,14.76,28.72.4,4.84-.06,9.68-1.19,14.38-3.01,12.53-10.3,21.59-22.72,25.6-16.35,5.28-31.98,4.17-45.32-7.81-8.59-7.72-11.51-18.13-11.31-29.34.23-12.91,4.41-24.15,15.42-31.9,7.46-5.25,15.91-7.34,24.88-7.03Zm19.18,39.68c.15-4.94-.89-9.57-3.09-13.98-5.33-10.71-22.13-12.69-29.69-3.37-6.48,7.98-6.61,17.16-4.17,26.54,3.45,13.27,19.41,18.14,29.9,9.27,5.75-4.86,6.73-11.54,7.06-18.45Z"></path><path class="uuid-72dede7b-e6e8-4ed7-9441-2cdcd4f185cf" d="m14.18,103.22c0-7.31-.07-13.31.03-19.31.04-2.53-.89-3.73-3.46-3.63-2.5.1-5,.04-7.49.16-2.2.11-3.57-.33-3.2-3.03.25-1.8.06-3.66.08-5.49.1-8.34-1.37-7.17,7.51-7.15,6.57.02,6.56.11,6.55-6.62-.01-5.83.06-11.67-.05-17.49-.05-2.45.56-3.68,3.33-3.56,4.49.19,9,.13,13.49.03,2.74-.06,3.87.95,3.79,3.82-.2,6.66-.04,13.33-.23,19.99-.09,2.95.78,4.2,3.94,4.04,4.65-.24,9.33.03,13.99-.09,2.38-.06,3.31.84,3.24,3.19-.09,3.16-.09,6.33.03,9.49.09,2.3-1.02,2.77-3.06,2.73-4.83-.11-9.66.03-14.5-.05-2.44-.04-3.61.76-3.58,3.44.12,10.33-.13,20.67.16,30.99.22,7.73,3.85,10.96,11.65,11.26,1.83.07,3.68.18,5.49-.01,3.21-.35,4.11,1.17,3.93,4.08-.16,2.66-.14,5.33-.05,7.99.08,2.49-.81,3.66-3.47,3.6-5.66-.14-11.34.17-16.99-.15-12.11-.68-18.82-6.96-20.62-19.07-1.01-6.79-.34-13.64-.52-19.16Z"></path><path class="uuid-72dede7b-e6e8-4ed7-9441-2cdcd4f185cf" d="m559.49,101.63c0-5.83-.03-11.66.01-17.48.02-2.82-.9-4.13-4.08-4.07-3.22.06-7.32,1.57-9.51-.86-1.95-2.17-.48-6.08-.55-9.21-.12-5.11-.04-5.11,5.21-5.11,9.01,0,9.04,0,9.02-8.97-.02-4.82-.07-9.65-.29-14.47-.13-2.83.62-4.44,3.82-4.34,4.49.14,8.99.13,13.49.05,2.4-.04,3.19.96,3.14,3.3-.12,6.16-.12,12.32-.05,18.49.08,6.8-.51,5.94,5.81,5.98,4,.03,8,.11,11.99-.05,2.29-.09,3.43.47,3.3,3.01-.16,2.99-.13,6-.02,8.99.1,2.66-1.05,3.44-3.61,3.34-4.66-.18-9.33.04-13.99-.09-2.49-.07-3.61.67-3.57,3.37.14,10.32-.03,20.65.2,30.98.18,7.94,3.94,11.37,11.93,11.51q9.09.16,9.07,9.36c0,.5,0,1,0,1.5-.08,4.66-.08,4.68-4.72,4.72-4.16.03-8.33.05-12.49,0-16.69-.22-24.07-8.62-24.2-24.94-.04-4.99,0-9.99,0-14.98.03,0,.06,0,.09,0Z"></path><path class="uuid-72dede7b-e6e8-4ed7-9441-2cdcd4f185cf" d="m695.24,64.9c5,0,9.99.09,14.98-.04,2.42-.06,3.26.92,3.19,3.24-.1,3.49-.11,6.99-.02,10.49.06,2.37-.93,3.19-3.29,3.16-6.99-.09-13.99,0-20.98.01-2.51,0-4.98.24-7.44.73-8.24,1.63-12.05,5.41-13.74,13.69-.91,4.46-.92,8.93-.07,13.38,1.81,9.52,7.79,14.82,17.55,15.16,7.82.27,15.65.13,23.47.19,4.31.03,4.34.05,4.42,4.42.06,3-.02,5.99,0,8.99.02,1.68-.33,2.97-2.39,2.99-13.77.08-27.65,1.68-41.21-1.96-8.92-2.4-15-8.36-18.87-16.58-7.43-15.79-6.24-31.05,3.78-45.29,6.24-8.87,15.8-11.74,26.11-12.36,4.81-.29,9.65-.05,14.48-.05v-.16Z"></path><path class="uuid-72dede7b-e6e8-4ed7-9441-2cdcd4f185cf" d="m612.32,102.83c0-11.31.09-22.61-.06-33.92-.04-3.01.79-4.21,3.91-4.07,4.48.2,8.98.02,13.47.05,4.04.03,4.1.05,4.1,4.17.02,18.46.01,36.91,0,55.37,0,4.16.03,8.31-.02,12.47-.05,4.52-.09,4.57-4.35,4.63-4.32.06-8.65.06-12.97,0-4.02-.05-4.11-.1-4.13-4.3-.05-11.47-.02-22.95-.02-34.42h.05Z"></path><path class="uuid-72dede7b-e6e8-4ed7-9441-2cdcd4f185cf" d="m622.49,56.43c-3.01-.48-7.35,1.53-9.63-1-2.02-2.25-.51-6.39-.56-9.69-.12-8.46-.04-8.45,8.26-8.47,3.16,0,6.32.04,9.47-.16,2.52-.16,3.71.68,3.66,3.32-.07,4.16-.04,8.32.11,12.47.11,2.91-1.23,3.77-3.94,3.56-2.31-.18-4.65-.04-7.37-.04Z"></path></g></svg>